<svg width="11" height="17" viewBox="0 0 11 17" fill="none" xmlns="http://www.w3.org/2000/svg">
<path d="M5.5 -0.000976562C2.4673 -0.000976562 0 2.59974 0 5.79642C0 6.87647 0.283831 7.93051 0.820997 8.84495L5.18693 16.261C5.27056 16.4031 5.4179 16.4894 5.57636 16.4894C5.57758 16.4894 5.57877 16.4894 5.57999 16.4894C5.73983 16.4881 5.88748 16.3991 5.96958 16.2545L10.2242 8.76662C10.7318 7.8715 11 6.84443 11 5.79642C11 2.59974 8.5327 -0.000976562 5.5 -0.000976562ZM9.43757 8.27055L5.56942 15.0782L1.6001 8.33587C1.15298 7.57474 0.910556 6.69663 0.910556 5.79642C0.910556 3.13252 2.97275 0.958814 5.5 0.958814C8.02725 0.958814 10.0864 3.13252 10.0864 5.79642C10.0864 6.66993 9.85994 7.52559 9.43757 8.27055Z" fill="white"/>
<path d="M5.50014 2.44141C3.8153 2.44141 2.44458 3.81133 2.44458 5.49518C2.44458 7.16827 3.793 8.54895 5.50014 8.54895C7.22832 8.54895 8.55569 7.14988 8.55569 5.49518C8.55569 3.81133 7.18497 2.44141 5.50014 2.44141ZM5.50014 7.53781C4.37104 7.53781 3.45631 6.62056 3.45631 5.49518C3.45631 4.37261 4.37691 3.45254 5.50014 3.45254C6.62336 3.45254 7.54057 4.37261 7.54057 5.49518C7.54057 6.60414 6.64712 7.53781 5.50014 7.53781Z" fill="white"/>
</svg>
